{"title":"Policegiri 2013 Hindi Movies DVDScr XviD New Source Best Quality","uid":8658436,"size":740219950,"categoryP":"video","categoryS":"movies","magnet":"?xt=urn:btih:480f62d9bbb8d0b5a87d25ba24dcbdf22ddc983c&amp;dn=Policegiri+2013+Hindi+Movies+DVDScr+XviD+New+Source+Best+Quality&amp;tr=udp%3A%2F%2Ftracker.openbittorrent.com%3A80&amp;tr=udp%3A%2F%2Fopen.demonii.com%3A1337&amp;tr=udp%3A%2F%2Ftracker.coppersurfer.tk%3A6969&amp;tr=udp%3A%2F%2Fexodus.desync.com%3A6969","seeders":1,"leechers":1,"uploader":"basicssom","files":2,"time":1373265444,"description":"Policegiri 2013 Hindi Movies DVDScr XviD New Source Best Quality Sample Included ~ â˜»rDXâ˜»\n\nScreen Shots :\n &lt;a href=&quot;\nhttp://myimghosting.serveftp.com/13/Policegiri.html&quot; rel=&quot;nofollow&quot; target=&quot;_NEW&quot;&gt;\nhttp://myimghosting.serveftp.com/13/Policegiri.html&lt;/a&gt;\n &lt;a href=&quot;\nhttp://myimghost.cwahi.net/Policegiri.html&quot; rel=&quot;nofollow&quot; target=&quot;_NEW&quot;&gt;\nhttp://myimghost.cwahi.net/Policegiri.html&lt;/a&gt;\n &lt;a href=&quot;\nhttp://users2.jabry.com/myimghost/Policegiri/Policegiri.jpg&quot; rel=&quot;nofollow&quot; target=&quot;_NEW&quot;&gt;\nhttp://users2.jabry.com/myimghost/Policegiri/Policegiri.jpg&lt;/a&gt;\n\nFormat                                   : AVI\nFormat/Info                              : Audio Video Interleave\nFile size                                : 690 MiB\nDuration                                 : 2h 14mn\nOverall bit rate                         : 715 Kbps\nWriting library                          : MPlayer\n\nVideo\nID                                       : 0\nFormat                                   : MPEG-4 Visual\nFormat profile                           : Advanced Simple@L5\nFormat settings, BVOP                    : 2\nFormat settings, QPel                    : No\nFormat settings, GMC                     : No warppoints\nFormat settings, Matrix                  : Default (H.263)\nCodec ID                                 : XVID\nCodec ID/Hint                            : XviD\nDuration                                 : 2h 14mn\nBit rate                                 : 630 Kbps\nWidth                                    : 624 pixels\nHeight                                   : 272 pixels\nDisplay aspect ratio                     : 2.35:1\nFrame rate                               : 23.976 fps\nColor space                              : YUV\nChroma subsampling                       : 4:2:0\nBit depth                                : 8 bits\nScan type                                : Progressive\nCompression mode                         : Lossy\nBits/(Pixel*Frame)                       : 0.155\nStream size                              : 607 MiB (88%)\nWriting library                          : XviD 1.2.1 (UTC 2008-12-04)\n\nAudio\nID                                       : 1\nFormat                                   : MPEG Audio\nFormat version                           : Version 1\nFormat profile                           : Layer 3\nMode                                     : Joint stereo\nMode extension                           : MS Stereo\nCodec ID                                 : 55\nCodec ID/Hint                            : MP3\nDuration                                 : 2h 14mn\nBit rate mode                            : Constant\nBit rate                                 : 80.0 Kbps\nChannel(s)                               : 2 channels\nSampling rate                            : 32.0 KHz\nCompression mode                         : Lossy\nStream size                              : 77.2 MiB (11%)\nAlignment                                : Aligned on interleaves\nInterleave, duration                     : 468 ms (11.22 video frames)\nInterleave, preload duration             : 936 ms\nWriting library                          : LAME3.99r\nEncoding settings                        : -m j -V 4 -q 2 -lowpass 13.5 -b 80","torrent":{"xt":"urn:btih:480f62d9bbb8d0b5a87d25ba24dcbdf22ddc983c","amp;dn":"Policegiri+2013+Hindi+Movies+DVDScr+XviD+New+Source+Best+Quality","amp;tr":["udp%3A%2F%2Ftracker.openbittorrent.com%3A80","udp%3A%2F%2Fopen.demonii.com%3A1337","udp%3A%2F%2Ftracker.coppersurfer.tk%3A6969","udp%3A%2F%2Fexodus.desync.com%3A6969"],"infoHash":"480f62d9bbb8d0b5a87d25ba24dcbdf22ddc983c","infoHashBuffer":{"type":"Buffer","data":[72,15,98,217,187,184,208,181,168,125,37,186,36,220,189,242,45,220,152,60]},"announce":[],"urlList":[]}}